<mxfile host="app.diagrams.net" agent="Mozilla/5.0 (Windows NT 10.0; Win64; x64) AppleWebKit/537.36 (KHTML, like Gecko) Chrome/135.0.0.0 Safari/537.36" version="26.2.13" pages="2">
  <diagram name="SAC Algorithm Flow" id="hXogvZRMCdvp2inXhf2s">
    <mxGraphModel grid="0" page="0" gridSize="10" guides="1" tooltips="1" connect="1" arrows="1" fold="1" pageScale="1" pageWidth="850" pageHeight="1100" math="0" shadow="0">
      <root>
        <mxCell id="0" />
        <mxCell id="1" parent="0" />
      </root>
    </mxGraphModel>
  </diagram>
  <diagram id="14WRxEUnGoRWIrRkuOl4" name="Page-2">
    <mxGraphModel dx="422" dy="219" grid="1" gridSize="10" guides="1" tooltips="1" connect="1" arrows="1" fold="1" page="1" pageScale="1" pageWidth="2336" pageHeight="1654" math="0" shadow="0">
      <root>
        <mxCell id="0" />
        <mxCell id="1" parent="0" />
        <mxCell id="T4qscIMxyCn3vWScT_7b-1" value="&lt;div&gt;&lt;span style=&quot;font-family: &amp;quot;Comic Sans MS&amp;quot;;&quot;&gt;&lt;font style=&quot;font-size: 18px;&quot;&gt;Pre-load = min(pv, load)&lt;/font&gt;&lt;/span&gt;&lt;/div&gt;&lt;span style=&quot;font-family: &amp;quot;Comic Sans MS&amp;quot;;&quot;&gt;&lt;font style=&quot;font-size: 18px;&quot;&gt;pv &amp;gt; load ?&lt;/font&gt;&lt;/span&gt;" style="whiteSpace=wrap;html=1;rounded=1;shadow=1;labelBackgroundColor=none;strokeWidth=1;fontFamily=Verdana;fontSize=12;align=center;" parent="1" vertex="1">
          <mxGeometry x="490" y="50" width="350" height="90" as="geometry" />
        </mxCell>
        <mxCell id="T4qscIMxyCn3vWScT_7b-252" value="" style="edgeStyle=orthogonalEdgeStyle;rounded=0;orthogonalLoop=1;jettySize=auto;html=1;" parent="1" source="T4qscIMxyCn3vWScT_7b-2" target="T4qscIMxyCn3vWScT_7b-251" edge="1">
          <mxGeometry relative="1" as="geometry" />
        </mxCell>
        <mxCell id="T4qscIMxyCn3vWScT_7b-2" value="&lt;pre&gt;&lt;span style=&quot;font-family: &amp;quot;Comic Sans MS&amp;quot;; font-size: 18px;&quot;&gt;&lt;span style=&quot;background-color: light-dark(rgb(240, 146, 29), rgb(237, 237, 237));&quot;&gt;Pre-load&lt;/span&gt; = load&lt;/span&gt;&lt;/pre&gt;" style="whiteSpace=wrap;html=1;rounded=1;shadow=1;labelBackgroundColor=none;strokeWidth=1;fontFamily=Verdana;fontSize=12;align=center;" parent="1" vertex="1">
          <mxGeometry x="330" y="210" width="220" height="60" as="geometry" />
        </mxCell>
        <mxCell id="T4qscIMxyCn3vWScT_7b-254" style="edgeStyle=orthogonalEdgeStyle;rounded=0;orthogonalLoop=1;jettySize=auto;html=1;exitX=0.5;exitY=1;exitDx=0;exitDy=0;entryX=0.5;entryY=0;entryDx=0;entryDy=0;" parent="1" source="T4qscIMxyCn3vWScT_7b-3" target="T4qscIMxyCn3vWScT_7b-253" edge="1">
          <mxGeometry relative="1" as="geometry" />
        </mxCell>
        <mxCell id="T4qscIMxyCn3vWScT_7b-3" value="&lt;span style=&quot;font-family: &amp;quot;Comic Sans MS&amp;quot;; font-size: 18px;&quot;&gt;&lt;span style=&quot;background-color: light-dark(rgb(240, 146, 29), rgb(237, 237, 237));&quot;&gt;Pre-load&lt;/span&gt; = pv&lt;/span&gt;" style="whiteSpace=wrap;html=1;rounded=1;shadow=1;labelBackgroundColor=none;strokeWidth=1;fontFamily=Verdana;fontSize=12;align=center;" parent="1" vertex="1">
          <mxGeometry x="800" y="210" width="220" height="60" as="geometry" />
        </mxCell>
        <mxCell id="T4qscIMxyCn3vWScT_7b-4" value="No" style="rounded=0;html=1;labelBackgroundColor=none;startArrow=none;startFill=0;startSize=5;endArrow=none;endFill=0;endSize=5;jettySize=auto;orthogonalLoop=1;strokeWidth=1;fontFamily=Verdana;fontSize=12" parent="1" source="T4qscIMxyCn3vWScT_7b-1" target="T4qscIMxyCn3vWScT_7b-3" edge="1">
          <mxGeometry x="0.1371" y="23" relative="1" as="geometry">
            <mxPoint as="offset" />
          </mxGeometry>
        </mxCell>
        <mxCell id="T4qscIMxyCn3vWScT_7b-5" value="Yes" style="rounded=0;html=1;labelBackgroundColor=none;startArrow=none;startFill=0;startSize=5;endArrow=none;endFill=0;endSize=5;jettySize=auto;orthogonalLoop=1;strokeWidth=1;fontFamily=Verdana;fontSize=12" parent="1" source="T4qscIMxyCn3vWScT_7b-1" target="T4qscIMxyCn3vWScT_7b-2" edge="1">
          <mxGeometry x="0.0994" y="-10" relative="1" as="geometry">
            <mxPoint as="offset" />
          </mxGeometry>
        </mxCell>
        <mxCell id="T4qscIMxyCn3vWScT_7b-6" value="&lt;span style=&quot;font-family: &amp;quot;Comic Sans MS&amp;quot;; font-size: 18px;&quot;&gt;Pre-bess =min(+x, battery)&lt;/span&gt;&lt;div&gt;&lt;span style=&quot;font-family: &amp;quot;Comic Sans MS&amp;quot;; font-size: 18px;&quot;&gt;x &amp;gt; battery?&lt;/span&gt;&lt;/div&gt;" style="whiteSpace=wrap;html=1;rounded=1;shadow=1;labelBackgroundColor=none;strokeWidth=1;fontFamily=Verdana;fontSize=12;align=center;" parent="1" vertex="1">
          <mxGeometry x="100" y="460" width="280" height="70" as="geometry" />
        </mxCell>
        <mxCell id="T4qscIMxyCn3vWScT_7b-7" value="&lt;span style=&quot;font-family: &amp;quot;Comic Sans MS&amp;quot;; font-size: 18px;&quot;&gt;Pre-bess = 0&lt;/span&gt;" style="whiteSpace=wrap;html=1;rounded=1;shadow=1;labelBackgroundColor=none;strokeWidth=1;fontFamily=Verdana;fontSize=12;align=center;" parent="1" vertex="1">
          <mxGeometry x="520" y="460" width="120" height="60" as="geometry" />
        </mxCell>
        <mxCell id="T4qscIMxyCn3vWScT_7b-8" value="&lt;span&gt;0&lt;/span&gt;" style="whiteSpace=wrap;html=1;rounded=0;shadow=1;labelBackgroundColor=none;strokeWidth=2;fontFamily=Verdana;fontSize=12;align=center;" parent="1" vertex="1">
          <mxGeometry x="755" y="460" width="120" height="60" as="geometry" />
        </mxCell>
        <mxCell id="T4qscIMxyCn3vWScT_7b-9" value="&lt;span&gt;0&lt;/span&gt;" style="whiteSpace=wrap;html=1;rounded=0;shadow=1;labelBackgroundColor=none;strokeWidth=2;fontFamily=Verdana;fontSize=12;align=center;" parent="1" vertex="1">
          <mxGeometry x="945" y="460" width="120" height="60" as="geometry" />
        </mxCell>
        <mxCell id="T4qscIMxyCn3vWScT_7b-12" value="Yes" style="rounded=0;html=1;labelBackgroundColor=none;startArrow=none;startFill=0;startSize=5;endArrow=none;endFill=0;endSize=5;jettySize=auto;orthogonalLoop=1;strokeWidth=1;fontFamily=Verdana;fontSize=12" parent="1" target="T4qscIMxyCn3vWScT_7b-6" edge="1">
          <mxGeometry x="0.188" y="-21" relative="1" as="geometry">
            <mxPoint as="offset" />
            <mxPoint x="410" y="390" as="sourcePoint" />
          </mxGeometry>
        </mxCell>
        <mxCell id="T4qscIMxyCn3vWScT_7b-13" value="No" style="rounded=0;html=1;labelBackgroundColor=none;startArrow=none;startFill=0;startSize=5;endArrow=none;endFill=0;endSize=5;jettySize=auto;orthogonalLoop=1;strokeWidth=1;fontFamily=Verdana;fontSize=12" parent="1" target="T4qscIMxyCn3vWScT_7b-7" edge="1">
          <mxGeometry x="0.1176" y="21" relative="1" as="geometry">
            <mxPoint as="offset" />
            <mxPoint x="470" y="390" as="sourcePoint" />
          </mxGeometry>
        </mxCell>
        <mxCell id="T4qscIMxyCn3vWScT_7b-14" value="Yes" style="rounded=0;html=1;labelBackgroundColor=none;startArrow=none;startFill=0;startSize=5;endArrow=none;endFill=0;endSize=5;jettySize=auto;orthogonalLoop=1;strokeWidth=1;fontFamily=Verdana;fontSize=12" parent="1" target="T4qscIMxyCn3vWScT_7b-8" edge="1">
          <mxGeometry x="-0.2614" y="-13" relative="1" as="geometry">
            <mxPoint as="offset" />
            <mxPoint x="887.727272727273" y="410" as="sourcePoint" />
          </mxGeometry>
        </mxCell>
        <mxCell id="T4qscIMxyCn3vWScT_7b-15" value="No" style="rounded=0;html=1;labelBackgroundColor=none;startArrow=none;startFill=0;startSize=5;endArrow=none;endFill=0;endSize=5;jettySize=auto;orthogonalLoop=1;strokeWidth=1;fontFamily=Verdana;fontSize=12" parent="1" target="T4qscIMxyCn3vWScT_7b-9" edge="1">
          <mxGeometry x="-0.1294" y="17" relative="1" as="geometry">
            <mxPoint as="offset" />
            <mxPoint x="939.5454545454545" y="410" as="sourcePoint" />
          </mxGeometry>
        </mxCell>
        <mxCell id="T4qscIMxyCn3vWScT_7b-247" value="&lt;font style=&quot;font-size: 16px;&quot; face=&quot;Comic Sans MS&quot;&gt;&lt;b style=&quot;font-style: normal;&quot;&gt;Utilization Caculation&lt;/b&gt;&lt;/font&gt;" style="text;html=1;strokeColor=none;fillColor=none;align=center;verticalAlign=middle;whiteSpace=wrap;rounded=0;fontFamily=Times New Roman;fontStyle=2;fontSize=17;sketch=1;curveFitting=1;jiggle=2;direction=east;rotation=0;" parent="1" vertex="1">
          <mxGeometry x="1160" y="20" width="190" height="70" as="geometry" />
        </mxCell>
        <mxCell id="T4qscIMxyCn3vWScT_7b-248" value="&lt;font style=&quot;font-size: 18px;&quot; face=&quot;Comic Sans MS&quot;&gt;&lt;span style=&quot;font-style: normal;&quot;&gt;Pre-load = min(pv-output, total-laod)&lt;/span&gt;&lt;/font&gt;" style="text;html=1;strokeColor=none;fillColor=none;align=center;verticalAlign=middle;whiteSpace=wrap;rounded=0;fontFamily=Times New Roman;fontStyle=2;fontSize=17;sketch=1;curveFitting=1;jiggle=2;direction=east;rotation=0;" parent="1" vertex="1">
          <mxGeometry x="1100" y="130" width="430" height="60" as="geometry" />
        </mxCell>
        <mxCell id="T4qscIMxyCn3vWScT_7b-249" value="&lt;font style=&quot;font-size: 18px;&quot; face=&quot;Comic Sans MS&quot;&gt;&lt;span style=&quot;font-style: normal;&quot;&gt;Pre-bess = min(pv-output - Pre-load, max(battery-power, 0))&lt;/span&gt;&lt;/font&gt;" style="text;html=1;strokeColor=none;fillColor=none;align=center;verticalAlign=middle;whiteSpace=wrap;rounded=0;fontFamily=Times New Roman;fontStyle=2;fontSize=17;sketch=1;curveFitting=1;jiggle=2;direction=east;rotation=0;" parent="1" vertex="1">
          <mxGeometry x="1150" y="200" width="530" height="60" as="geometry" />
        </mxCell>
        <mxCell id="T4qscIMxyCn3vWScT_7b-250" value="&lt;font style=&quot;font-size: 18px;&quot; face=&quot;Comic Sans MS&quot;&gt;&lt;span style=&quot;font-style: normal;&quot;&gt;Pre-used = Pre-load + Pre-bess&lt;/span&gt;&lt;/font&gt;" style="text;html=1;strokeColor=none;fillColor=none;align=center;verticalAlign=middle;whiteSpace=wrap;rounded=0;fontFamily=Times New Roman;fontStyle=2;fontSize=17;sketch=1;curveFitting=1;jiggle=2;direction=east;rotation=0;" parent="1" vertex="1">
          <mxGeometry x="1080" y="270" width="430" height="60" as="geometry" />
        </mxCell>
        <mxCell id="T4qscIMxyCn3vWScT_7b-251" value="&lt;span style=&quot;font-family: &amp;quot;Comic Sans MS&amp;quot;; font-size: 18px;&quot;&gt;Pre-bess = min(+x, max(battery,o))&lt;/span&gt;&lt;div&gt;&lt;span style=&quot;font-family: &amp;quot;Comic Sans MS&amp;quot;; font-size: 18px;&quot;&gt;battery &amp;gt; 0?&lt;/span&gt;&lt;/div&gt;" style="whiteSpace=wrap;html=1;rounded=1;shadow=1;labelBackgroundColor=none;strokeWidth=1;fontFamily=Verdana;fontSize=12;align=center;" parent="1" vertex="1">
          <mxGeometry x="257.5" y="320" width="365" height="90" as="geometry" />
        </mxCell>
        <mxCell id="T4qscIMxyCn3vWScT_7b-253" value="&lt;span style=&quot;font-family: &amp;quot;Comic Sans MS&amp;quot;; font-size: 18px;&quot;&gt;min(0, max(battery,0))&lt;/span&gt;" style="whiteSpace=wrap;html=1;rounded=1;shadow=1;labelBackgroundColor=none;strokeWidth=1;fontFamily=Verdana;fontSize=12;align=center;" parent="1" vertex="1">
          <mxGeometry x="805" y="350" width="210" height="60" as="geometry" />
        </mxCell>
        <mxCell id="_V0p56IyPh4q0-MjYOH3-3" value="Yes" style="rounded=0;html=1;labelBackgroundColor=none;startArrow=none;startFill=0;startSize=5;endArrow=none;endFill=0;endSize=5;jettySize=auto;orthogonalLoop=1;strokeWidth=1;fontFamily=Verdana;fontSize=12;entryX=0.5;entryY=0;entryDx=0;entryDy=0;" edge="1" parent="1" target="_V0p56IyPh4q0-MjYOH3-5">
          <mxGeometry x="-0.2" y="-14" relative="1" as="geometry">
            <mxPoint as="offset" />
            <mxPoint x="225" y="530" as="sourcePoint" />
            <mxPoint x="160" y="600" as="targetPoint" />
          </mxGeometry>
        </mxCell>
        <mxCell id="_V0p56IyPh4q0-MjYOH3-5" value="&lt;span style=&quot;font-family: &amp;quot;Comic Sans MS&amp;quot;; font-size: 18px;&quot;&gt;Pre-bess = battery&lt;/span&gt;" style="whiteSpace=wrap;html=1;rounded=1;shadow=1;labelBackgroundColor=none;strokeWidth=1;fontFamily=Verdana;fontSize=12;align=center;" vertex="1" parent="1">
          <mxGeometry x="30" y="600" width="190" height="80" as="geometry" />
        </mxCell>
        <mxCell id="_V0p56IyPh4q0-MjYOH3-6" value="&lt;span style=&quot;font-family: &amp;quot;Comic Sans MS&amp;quot;; font-size: 18px;&quot;&gt;Pre-bess = battery&lt;/span&gt;" style="whiteSpace=wrap;html=1;rounded=1;shadow=1;labelBackgroundColor=none;strokeWidth=1;fontFamily=Verdana;fontSize=12;align=center;" vertex="1" parent="1">
          <mxGeometry x="290" y="590" width="190" height="80" as="geometry" />
        </mxCell>
        <mxCell id="_V0p56IyPh4q0-MjYOH3-8" value="No" style="rounded=0;html=1;labelBackgroundColor=none;startArrow=none;startFill=0;startSize=5;endArrow=none;endFill=0;endSize=5;jettySize=auto;orthogonalLoop=1;strokeWidth=1;fontFamily=Verdana;fontSize=12;exitX=0.619;exitY=1.015;exitDx=0;exitDy=0;exitPerimeter=0;entryX=0.5;entryY=0;entryDx=0;entryDy=0;" edge="1" parent="1" source="T4qscIMxyCn3vWScT_7b-6" target="_V0p56IyPh4q0-MjYOH3-6">
          <mxGeometry x="0.1176" y="21" relative="1" as="geometry">
            <mxPoint as="offset" />
            <mxPoint x="257.49999999999994" y="520" as="sourcePoint" />
            <mxPoint x="340" y="570" as="targetPoint" />
          </mxGeometry>
        </mxCell>
      </root>
    </mxGraphModel>
  </diagram>
</mxfile>
